<svg width="14" height="18" viewBox="0 0 14 18" fill="none" xmlns="http://www.w3.org/2000/svg">
    <path d="M11.6042 13.2577C11.6042 13.6323 11.302 13.9363 10.9267 13.9363H3.07939C2.70477 13.9363 2.40149 13.6323 2.40149 13.2577V6.24675C4.45848 6.23922 9.2572 6.23922 11.6042 6.24675V13.2577Z" fill="#233065"/>
    <path d="M5.30861 2.65218C5.34733 2.72818 5.31792 2.82319 5.24087 2.86261C5.16452 2.90133 5.06954 2.87087 5.03082 2.79452L4.03889 0.861212C3.99947 0.784158 4.03098 0.690931 4.10737 0.651161C4.18372 0.611706 4.278 0.642199 4.31742 0.718937L5.30865 2.65225L5.30861 2.65218Z" fill="#233065"/>
    <path d="M8.92124 2.73357C8.87822 2.80849 8.78289 2.83429 8.70759 2.78987C8.63302 2.74754 8.60757 2.65221 8.65129 2.57726L9.7375 0.696254C9.78053 0.621686 9.87659 0.595185 9.95042 0.639261C10.0257 0.681901 10.0511 0.777649 10.0082 0.851832L8.92121 2.73354L8.92124 2.73357Z" fill="#233065"/>
    <path d="M14 11.3566C14 11.9018 13.5584 12.3445 13.012 12.3445C12.4657 12.3445 12.0229 11.9022 12.0229 11.3566V7.03284C12.0229 6.48649 12.4653 6.04521 13.012 6.04521C13.558 6.04521 14 6.48653 14 7.03284V11.3566Z" fill="#233065"/>
    <path d="M1.97633 11.3566C1.97633 11.9018 1.53327 12.3445 0.98871 12.3445C0.442017 12.3445 0 11.9022 0 11.3566V7.03284C0 6.48649 0.441632 6.04521 0.98871 6.04521C1.53327 6.04521 1.97633 6.48653 1.97633 7.03284V11.3566Z" fill="#233065"/>
    <path d="M6.27891 16.3048C6.27891 16.8501 5.83654 17.2928 5.2895 17.2928C4.74424 17.2928 4.30261 16.8504 4.30261 16.3048V11.9811C4.30261 11.4362 4.74424 10.9924 5.2895 10.9924C5.83619 10.9924 6.27891 11.4362 6.27891 11.9811V16.3048Z" fill="#233065"/>
    <path d="M9.70653 16.3048C9.70653 16.8501 9.26416 17.2928 8.71747 17.2928C8.17221 17.2928 7.72949 16.8504 7.72949 16.3048V11.9811C7.72949 11.4362 8.17186 10.9924 8.71747 10.9924C9.26381 10.9924 9.70653 11.4362 9.70653 11.9811V16.3048Z" fill="#233065"/>
    <path d="M7.00302 1.62689C4.59972 1.62689 2.62052 3.45591 2.35596 5.80687H11.6497C11.3859 3.45591 9.40775 1.62693 7.00302 1.62693V1.62689ZM4.90622 4.16105C4.69183 4.16105 4.51868 3.98863 4.51868 3.77498C4.51868 3.56206 4.69183 3.3896 4.90622 3.3896C5.11844 3.3896 5.29159 3.56202 5.29159 3.77498C5.29159 3.98863 5.11844 4.16105 4.90622 4.16105ZM9.10804 4.16105C8.89438 4.16105 8.72123 3.98863 8.72123 3.77498C8.72123 3.56206 8.89438 3.3896 9.10804 3.3896C9.3224 3.3896 9.49415 3.56202 9.49415 3.77498C9.49415 3.98863 9.32243 4.16105 9.10804 4.16105Z" fill="#233065"/>
</svg>
